<svg xmlns="http://www.w3.org/2000/svg" viewBox="0 0 512 512" width="100%" height="100%">
  <defs>
    <linearGradient id="bgGrad" x1="0%" y1="0%" x2="100%" y2="100%">
      <stop offset="0%" stop-color="#0b1329" />
      <stop offset="100%" stop-color="#020617" />
    </linearGradient>
    <linearGradient id="shieldGrad" x1="0%" y1="0%" x2="100%" y2="100%">
      <stop offset="0%" stop-color="#22d3ee" />
      <stop offset="60%" stop-color="#3b82f6" />
      <stop offset="100%" stop-color="#6366f1" />
    </linearGradient>
    <radialGradient id="sweepGrad" cx="50%" cy="50%" r="50%">
      <stop offset="0%" stop-color="#22d3ee" stop-opacity="0.35" />
      <stop offset="100%" stop-color="#3b82f6" stop-opacity="0" />
    </radialGradient>
    <filter id="glow" x="-20%" y="-20%" width="140%" height="140%">
      <feGaussianBlur stdDeviation="6" result="blur" />
      <feComposite in="SourceGraphic" in2="blur" operator="over" />
    </filter>
  </defs>
  <rect x="32" y="32" width="448" height="448" rx="96" fill="url(#bgGrad)" stroke="#1e293b" stroke-width="6" />
  <path d="M 256 100 C 330 100, 370 120, 370 120 C 370 240, 340 340, 256 404 C 172 340, 142 240, 142 120 C 142 120, 182 100, 256 100 Z" 
        fill="none" stroke="url(#shieldGrad)" stroke-width="14" stroke-linejoin="round" filter="url(#glow)" />
  <circle cx="256" cy="235" r="75" fill="none" stroke="#38bdf8" stroke-width="5" stroke-dasharray="6 6" opacity="0.75" />
  <path d="M 256 235 L 309 182 A 75 75 0 0 0 256 160 Z" fill="url(#sweepGrad)" />
  <line x1="256" y1="235" x2="309" y2="182" stroke="#22d3ee" stroke-width="5" stroke-linecap="round" filter="url(#glow)" />
  <circle cx="295" cy="195" r="10" fill="#f43f5e" filter="url(#glow)" />
  <circle cx="256" cy="235" r="7" fill="#ffffff" />
</svg>
