<svg xmlns="http://www.w3.org/2000/svg" viewBox="0 0 512 512" width="100%" height="100%">
  <defs>
    <linearGradient id="shieldGradBold" x1="0%" y1="0%" x2="100%" y2="100%">
      <stop offset="0%" stop-color="#06b6d4" />
      <stop offset="50%" stop-color="#2563eb" />
      <stop offset="100%" stop-color="#4f46e5" />
    </linearGradient>
    <radialGradient id="sweepGradBold" cx="50%" cy="50%" r="50%">
      <stop offset="0%" stop-color="#22d3ee" stop-opacity="0.6" />
      <stop offset="100%" stop-color="#2563eb" stop-opacity="0" />
    </radialGradient>
    <filter id="glowBold" x="-20%" y="-20%" width="140%" height="140%">
      <feGaussianBlur stdDeviation="8" result="blur" />
      <feComposite in="SourceGraphic" in2="blur" operator="over" />
    </filter>
  </defs>
  <path d="M 256 50 C 350 50, 400 76, 400 76 C 400 230, 360 360, 256 442 C 152 360, 112 230, 112 76 C 112 76, 162 50, 256 50 Z" 
        fill="none" stroke="url(#shieldGradBold)" stroke-width="28" stroke-linejoin="round" filter="url(#glowBold)" />
  <circle cx="256" cy="225" r="95" fill="none" stroke="#0284c7" stroke-width="10" stroke-dasharray="10 10" />
  <path d="M 256 225 L 323 158 A 95 95 0 0 0 256 130 Z" fill="url(#sweepGradBold)" />
  <line x1="256" y1="225" x2="323" y2="158" stroke="#22d3ee" stroke-width="10" stroke-linecap="round" filter="url(#glowBold)" />
  <circle cx="308" cy="173" r="16" fill="#f43f5e" filter="url(#glowBold)" />
  <circle cx="308" cy="173" r="6" fill="#ffffff" />
  <circle cx="256" cy="225" r="12" fill="#38bdf8" />
</svg>
